<svg width="351" height="274" viewBox="0 0 351 274" fill="none" xmlns="http://www.w3.org/2000/svg">
<g filter="url(#filter0_d_9_2)">
<path d="M63.56 197V169H74.04C76.4133 169 78.4533 169.387 80.16 170.16C81.8667 170.907 83.1733 172 84.08 173.44C85.0133 174.853 85.48 176.573 85.48 178.6C85.48 180.573 85.0133 182.28 84.08 183.72C83.1733 185.133 81.8667 186.227 80.16 187C78.4533 187.773 76.4133 188.16 74.04 188.16H65.2L66.52 186.76V197H63.56ZM66.52 187L65.2 185.56H73.96C76.76 185.56 78.88 184.96 80.32 183.76C81.7867 182.533 82.52 180.813 82.52 178.6C82.52 176.36 81.7867 174.627 80.32 173.4C78.88 172.173 76.76 171.56 73.96 171.56H65.2L66.52 170.16V187ZM87.5725 197V176H90.2925V181.72L90.0125 180.72C90.5992 179.12 91.5858 177.907 92.9725 177.08C94.3592 176.227 96.0792 175.8 98.1325 175.8V178.56C98.0258 178.56 97.9192 178.56 97.8125 178.56C97.7058 178.533 97.5992 178.52 97.4925 178.52C95.2792 178.52 93.5458 179.2 92.2925 180.56C91.0392 181.893 90.4125 183.8 90.4125 186.28V197H87.5725ZM108.479 197.2C106.453 197.2 104.626 196.747 102.999 195.84C101.399 194.907 100.133 193.64 99.1994 192.04C98.266 190.413 97.7994 188.56 97.7994 186.48C97.7994 184.373 98.266 182.52 99.1994 180.92C100.133 179.32 101.399 178.067 102.999 177.16C104.599 176.253 106.426 175.8 108.479 175.8C110.559 175.8 112.399 176.253 113.999 177.16C115.626 178.067 116.893 179.32 117.799 180.92C118.733 182.52 119.199 184.373 119.199 186.48C119.199 188.56 118.733 190.413 117.799 192.04C116.893 193.64 115.626 194.907 113.999 195.84C112.373 196.747 110.533 197.2 108.479 197.2ZM108.479 194.68C109.999 194.68 111.346 194.347 112.519 193.68C113.693 192.987 114.613 192.027 115.279 190.8C115.973 189.547 116.319 188.107 116.319 186.48C116.319 184.827 115.973 183.387 115.279 182.16C114.613 180.933 113.693 179.987 112.519 179.32C111.346 178.627 110.013 178.28 108.519 178.28C107.026 178.28 105.693 178.627 104.519 179.32C103.346 179.987 102.413 180.933 101.719 182.16C101.026 183.387 100.679 184.827 100.679 186.48C100.679 188.107 101.026 189.547 101.719 190.8C102.413 192.027 103.346 192.987 104.519 193.68C105.693 194.347 107.013 194.68 108.479 194.68ZM130.758 204.96C128.838 204.96 126.998 204.68 125.238 204.12C123.478 203.56 122.051 202.76 120.958 201.72L122.398 199.56C123.384 200.44 124.598 201.133 126.038 201.64C127.504 202.173 129.051 202.44 130.678 202.44C133.344 202.44 135.304 201.813 136.558 200.56C137.811 199.333 138.438 197.413 138.438 194.8V189.56L138.838 185.96L138.558 182.36V176H141.278V194.44C141.278 198.067 140.384 200.72 138.598 202.4C136.838 204.107 134.224 204.96 130.758 204.96ZM130.238 196.2C128.238 196.2 126.438 195.773 124.838 194.92C123.238 194.04 121.971 192.827 121.038 191.28C120.131 189.733 119.678 187.96 119.678 185.96C119.678 183.96 120.131 182.2 121.038 180.68C121.971 179.133 123.238 177.933 124.838 177.08C126.438 176.227 128.238 175.8 130.238 175.8C132.104 175.8 133.784 176.187 135.278 176.96C136.771 177.733 137.958 178.88 138.838 180.4C139.718 181.92 140.158 183.773 140.158 185.96C140.158 188.147 139.718 190 138.838 191.52C137.958 193.04 136.771 194.2 135.278 195C133.784 195.8 132.104 196.2 130.238 196.2ZM130.518 193.68C132.064 193.68 133.438 193.36 134.638 192.72C135.838 192.053 136.784 191.147 137.478 190C138.171 188.827 138.518 187.48 138.518 185.96C138.518 184.44 138.171 183.107 137.478 181.96C136.784 180.813 135.838 179.92 134.638 179.28C133.438 178.613 132.064 178.28 130.518 178.28C128.998 178.28 127.624 178.613 126.398 179.28C125.198 179.92 124.251 180.813 123.558 181.96C122.891 183.107 122.558 184.44 122.558 185.96C122.558 187.48 122.891 188.827 123.558 190C124.251 191.147 125.198 192.053 126.398 192.72C127.624 193.36 128.998 193.68 130.518 193.68ZM145.98 197V176H148.7V181.72L148.42 180.72C149.007 179.12 149.994 177.907 151.38 177.08C152.767 176.227 154.487 175.8 156.54 175.8V178.56C156.434 178.56 156.327 178.56 156.22 178.56C156.114 178.533 156.007 178.52 155.9 178.52C153.687 178.52 151.954 179.2 150.7 180.56C149.447 181.893 148.82 183.8 148.82 186.28V197H145.98ZM170.12 197V192.36L170 191.6V183.84C170 182.053 169.493 180.68 168.48 179.72C167.493 178.76 166.013 178.28 164.04 178.28C162.68 178.28 161.387 178.507 160.16 178.96C158.933 179.413 157.893 180.013 157.04 180.76L155.76 178.64C156.827 177.733 158.107 177.04 159.6 176.56C161.093 176.053 162.667 175.8 164.32 175.8C167.04 175.8 169.133 176.48 170.6 177.84C172.093 179.173 172.84 181.213 172.84 183.96V197H170.12ZM162.88 197.2C161.307 197.2 159.933 196.947 158.76 196.44C157.613 195.907 156.733 195.187 156.12 194.28C155.507 193.347 155.2 192.28 155.2 191.08C155.2 189.987 155.453 189 155.96 188.12C156.493 187.213 157.347 186.493 158.52 185.96C159.72 185.4 161.32 185.12 163.32 185.12H170.56V187.24H163.4C161.373 187.24 159.96 187.6 159.16 188.32C158.387 189.04 158 189.933 158 191C158 192.2 158.467 193.16 159.4 193.88C160.333 194.6 161.64 194.96 163.32 194.96C164.92 194.96 166.293 194.6 167.44 193.88C168.613 193.133 169.467 192.067 170 190.68L170.64 192.64C170.107 194.027 169.173 195.133 167.84 195.96C166.533 196.787 164.88 197.2 162.88 197.2ZM203.594 175.8C205.3 175.8 206.78 176.133 208.034 176.8C209.314 177.44 210.3 178.427 210.994 179.76C211.714 181.093 212.074 182.773 212.074 184.8V197H209.234V185.08C209.234 182.867 208.7 181.2 207.634 180.08C206.594 178.933 205.114 178.36 203.194 178.36C201.754 178.36 200.5 178.667 199.434 179.28C198.394 179.867 197.58 180.733 196.994 181.88C196.434 183 196.154 184.36 196.154 185.96V197H193.314V185.08C193.314 182.867 192.78 181.2 191.714 180.08C190.647 178.933 189.154 178.36 187.234 178.36C185.82 178.36 184.58 178.667 183.514 179.28C182.447 179.867 181.62 180.733 181.034 181.88C180.474 183 180.194 184.36 180.194 185.96V197H177.354V176H180.074V181.68L179.634 180.68C180.274 179.16 181.3 177.973 182.714 177.12C184.154 176.24 185.847 175.8 187.794 175.8C189.847 175.8 191.594 176.32 193.034 177.36C194.474 178.373 195.407 179.907 195.834 181.96L194.714 181.52C195.327 179.813 196.407 178.44 197.954 177.4C199.527 176.333 201.407 175.8 203.594 175.8ZM219.816 181.52H234.616V184.04H219.816V181.52ZM220.136 194.44H236.976V197H217.176V169H236.376V171.56H220.136V194.44ZM246.187 197.2C244.214 197.2 242.694 196.667 241.627 195.6C240.561 194.533 240.027 193.027 240.027 191.08V171.36H242.867V190.92C242.867 192.147 243.174 193.093 243.787 193.76C244.427 194.427 245.334 194.76 246.507 194.76C247.761 194.76 248.801 194.4 249.627 193.68L250.627 195.72C250.067 196.227 249.387 196.6 248.587 196.84C247.814 197.08 247.014 197.2 246.187 197.2ZM236.267 178.36V176H249.267V178.36H236.267ZM260.775 197.2C258.589 197.2 256.669 196.747 255.015 195.84C253.362 194.907 252.069 193.64 251.135 192.04C250.202 190.413 249.735 188.56 249.735 186.48C249.735 184.4 250.175 182.56 251.055 180.96C251.962 179.36 253.189 178.107 254.735 177.2C256.309 176.267 258.069 175.8 260.015 175.8C261.989 175.8 263.735 176.253 265.255 177.16C266.802 178.04 268.015 179.293 268.895 180.92C269.775 182.52 270.215 184.373 270.215 186.48C270.215 186.613 270.202 186.76 270.175 186.92C270.175 187.053 270.175 187.2 270.175 187.36H251.895V185.24H268.655L267.535 186.08C267.535 184.56 267.202 183.213 266.535 182.04C265.895 180.84 265.015 179.907 263.895 179.24C262.775 178.573 261.482 178.24 260.015 178.24C258.575 178.24 257.282 178.573 256.135 179.24C254.989 179.907 254.095 180.84 253.455 182.04C252.815 183.24 252.495 184.613 252.495 186.16V186.6C252.495 188.2 252.842 189.613 253.535 190.84C254.255 192.04 255.242 192.987 256.495 193.68C257.775 194.347 259.229 194.68 260.855 194.68C262.135 194.68 263.322 194.453 264.415 194C265.535 193.547 266.495 192.853 267.295 191.92L268.895 193.76C267.962 194.88 266.789 195.733 265.375 196.32C263.989 196.907 262.455 197.2 260.775 197.2ZM281.516 197.2C279.436 197.2 277.569 196.747 275.916 195.84C274.289 194.907 273.009 193.64 272.076 192.04C271.143 190.413 270.676 188.56 270.676 186.48C270.676 184.373 271.143 182.52 272.076 180.92C273.009 179.32 274.289 178.067 275.916 177.16C277.569 176.253 279.436 175.8 281.516 175.8C283.303 175.8 284.916 176.147 286.356 176.84C287.796 177.533 288.929 178.573 289.756 179.96L287.636 181.4C286.916 180.333 286.023 179.547 284.956 179.04C283.889 178.533 282.729 178.28 281.476 178.28C279.983 178.28 278.636 178.627 277.436 179.32C276.236 179.987 275.289 180.933 274.596 182.16C273.903 183.387 273.556 184.827 273.556 186.48C273.556 188.133 273.903 189.573 274.596 190.8C275.289 192.027 276.236 192.987 277.436 193.68C278.636 194.347 279.983 194.68 281.476 194.68C282.729 194.68 283.889 194.427 284.956 193.92C286.023 193.413 286.916 192.64 287.636 191.6L289.756 193.04C288.929 194.4 287.796 195.44 286.356 196.16C284.916 196.853 283.303 197.2 281.516 197.2Z" fill="white"/>
</g>
<path d="M227.5 114.52V88L181.5 111.8V139L227.5 114.52Z" fill="#010001" stroke="black"/>
<path d="M170 112V86L123 109.333V136L170 112Z" fill="#299F27" stroke="#299F27"/>
<path d="M180 90.8113V65L227 87.4151L200.343 101L180 90.8113Z" fill="#6F7274" stroke="#6F7274"/>
<path d="M170.5 133.189V159L123.5 136.585L150.157 123L170.5 133.189Z" fill="#93E087" stroke="#93E087"/>
<defs>
<filter id="filter0_d_9_2" x="63.5601" y="167" width="238.196" height="47.96" filterUnits="userSpaceOnUse" color-interpolation-filters="sRGB">
<feFlood flood-opacity="0" result="BackgroundImageFix"/>
<feColorMatrix in="SourceAlpha" type="matrix" values="0 0 0 0 0 0 0 0 0 0 0 0 0 0 0 0 0 0 127 0" result="hardAlpha"/>
<feOffset dx="6" dy="4"/>
<feGaussianBlur stdDeviation="3"/>
<feComposite in2="hardAlpha" operator="out"/>
<feColorMatrix type="matrix" values="0 0 0 0 0 0 0 0 0 0 0 0 0 0 0 0 0 0 0.25 0"/>
<feBlend mode="normal" in2="BackgroundImageFix" result="effect1_dropShadow_9_2"/>
<feBlend mode="normal" in="SourceGraphic" in2="effect1_dropShadow_9_2" result="shape"/>
</filter>
</defs>
</svg>
